# xmcd
#
# Track frame offsets:
#	151
#	21424
#	41453
#	60534
#	82613
#	100998
#	119883
#	135608
#	153335
#
# Disc length: 2332 seconds
#
# Revision: 0
# Processed by: cddbd v1.5.2PL0 Copyright (c) Steve Scherf et al.
# Submitted via: EasyCDDAExtractor 11.0.3.1
#
DISCID=6f091a09
DTITLE=Mikki Howard - Come Share My Love
DYEAR=1900
DGENRE=R&B
TTITLE0=Come Share My Love
TTITLE1=Love Will Find A Way
TTITLE2=Imagination
TTITLE3=Come Back To Me Love
TTITLE4=I Can't Wait (To See You Alone)
TTITLE5=I Surrender
TTITLE6=My Friend
TTITLE7=You Better Be Ready To Love Me
TTITLE8=Do You Want My Love
EXTD=
EXTT0=
EXTT1=
EXTT2=
EXTT3=
EXTT4=
EXTT5=
EXTT6=
EXTT7=
EXTT8=
PLAYORDER=
